PathFileType	4	(X/Y/Z)	/Users/itak/Documents/Research/Walk-IL/dataset/trc/00017_00004.trc
DataRate	CameraRate	NumFrames	NumMarkers	Units	OrigDataRate	OrigDataStartFrame	OrigNumFrames
100.000000	100.000000	4	56	mm	100.000000	55	441
Frame#	Time	RPSI			LPSI			L3			STRN			T10			C7			CLAV			RBAK			LBAK			LSHO			LUPA			LAEL			LAOL			LWTS			LWPS			LFRA			LIFD			LHPS			LHTS			RSHO			RUPA			RAEL			RAOL			RWTS			RWPS			RFRA			RIFD			RHTS			RHPS			RBHD			LFHD			RFHD			LBHD			LHIP			RHIP			RASI			LASI			LKNE			LANK			LTIP			LTOE			LMT1			LMT5			LHEE			RKNE			RTHI			RANK			RTIP			RTOE			RMT1			RMT5			RHEE			LTHI			*53			*54			*55			
		X1	Y1	Z1	X2	Y2	Z2	X3	Y3	Z3	X4	Y4	Z4	X5	Y5	Z5	X6	Y6	Z6	X7	Y7	Z7	X8	Y8	Z8	X9	Y9	Z9	X10	Y10	Z10	X11	Y11	Z11	X12	Y12	Z12	X13	Y13	Z13	X14	Y14	Z14	X15	Y15	Z15	X16	Y16	Z16	X17	Y17	Z17	X18	Y18	Z18	X19	Y19	Z19	X20	Y20	Z20	X21	Y21	Z21	X22	Y22	Z22	X23	Y23	Z23	X24	Y24	Z24	X25	Y25	Z25	X26	Y26	Z26	X27	Y27	Z27	X28	Y28	Z28	X29	Y29	Z29	X30	Y30	Z30	X31	Y31	Z31	X32	Y32	Z32	X33	Y33	Z33	X34	Y34	Z34	X35	Y35	Z35	X36	Y36	Z36	X37	Y37	Z37	X38	Y38	Z38	X39	Y39	Z39	X40	Y40	Z40	X41	Y41	Z41	X42	Y42	Z42	X43	Y43	Z43	X44	Y44	Z44	X45	Y45	Z45	X46	Y46	Z46	X47	Y47	Z47	X48	Y48	Z48	X49	Y49	Z49	X50	Y50	Z50	X51	Y51	Z51	X52	Y52	Z52	X53	Y53	Z53	X54	Y54	Z54	X55	Y55	Z55	X56	Y56	Z56	

56	0.55	869.6860961914062	1050.439453125	-187.0256652832031	829.1129150390625	1048.466430664062	-344.2550048828125	842.9151000976562	1112.964965820312	-272.1755065917969	1070.297119140625	1306.392700195312	-306.6810607910156	821.1953125	1258.405639648438	-273.9664916992188	869.02197265625	1525.389770507812	-296.1308288574219	1027.804809570312	1432.350341796875	-306.8020629882812	827.0734252929688	1388.944946289062	-207.4714202880859	842.07568359375	1482.664184570312	-391.5594177246094	938.3810424804688	1487.040283203125	-475.5161437988281	900.8688354492188	1362.253173828125	-549.2269897460938	899.1052856445312	1143.714965820312	-574.8357543945312	850.6797485351562	1131.428588867188	-481.588134765625	993.4318237304688	892.61865234375	-522.3626708984375	914.2755126953125	876.1083984375	-560.45166015625	912.5771484375	1027.589599609375	-580.4304809570312	1024.981323242188	710.1367797851562	-502.538330078125	948.9063110351562	786.7788696289062	-559.83740234375	1015.571655273438	799.330810546875	-536.8297729492188	965.8099365234375	1513.2216796875	-130.9658355712891	962.6119995117188	1443.4072265625	-55.26619720458984	939.2725219726562	1174.764770507812	-18.43643379211426	923.2587890625	1143.508544921875	-112.1750793457031	1099.130981445312	938.2953491210938	-75.29395294189453	1049.103271484375	912.188720703125	-3.293692111968994	963.4085083007812	1099.223999023438	-5.565952777862549	1152.472412109375	759.8131713867188	-95.14675903320312	1154.48583984375	837.33935546875	-68.08684539794922	1108.15478515625	822.177734375	-11.14450931549072	923.0332641601562	1698.633422851562	-225.4332275390625	1086.723510742188	1729.265869140625	-356.3662109375	1092.348388671875	1730.619262695312	-257.4561157226562	906.2676391601562	1700.439331054688	-368.8314514160156	894.9359741210938	952.3521728515625	-474.3732299804688	1006.405700683594	945.774169921875	-113.8525543212891	1086.45947265625	979.0137329101562	-212.3996429443359	1022.765258789062	995.9259643554688	-438.0816040039062	954.3624267578125	496.522216796875	-469.6399230957031	588.197998046875	136.926025390625	-430.7778015136719	753.9647827148438	327.1573791503906	-466.0899353027344	785.39208984375	38.3428840637207	-379.6023559570312	737.81640625	72.27611541748047	-358.796630859375	691.68017578125	70.34981536865234	-454.6414794921875	538.3348388671875	181.0621948242188	-375.1634216308594	1079.092529296875	519.2178955078125	-172.0143585205078	1052.347778320312	787.4379272460938	-124.6303787231445	1038.30908203125	31.93218231201172	-195.07568359375	1074.738159179688	394.7020263671875	-169.0139465332031	1268.77685546875	30.00927925109863	-238.3551177978516	1206.476684570312	36.78336715698242	-268.0430908203125	1186.461791992188	28.78214645385742	-173.6978759765625	982.6168823242188	33.19903182983398	-238.7599792480469	925.9681396484375	641.7171630859375	-487.739013671875	nan	nan	nan	nan	nan	nan	nan	nan	nan	
57	0.5600000000000001	864.2633666992188	1049.567138671875	-188.0735168457031	823.827880859375	1047.385620117188	-345.3176574707031	837.6214599609375	1112.164916992188	-273.4205627441406	1064.666137695312	1305.697631835938	-307.5163879394531	815.8485717773438	1257.414184570312	-275.8456420898438	863.0938720703125	1524.479370117188	-298.0134887695312	1022.060485839844	1431.650146484375	-307.8208923339844	820.8960571289062	1387.978759765625	-209.4761505126953	836.6477661132812	1481.668212890625	-393.5213317871094	933.3262329101562	1486.173706054688	-476.9826049804688	896.8976440429688	1361.289306640625	-551.0629272460938	897.1300048828125	1142.638061523438	-576.6275024414062	847.7213134765625	1129.931518554688	-483.9875793457031	994.3216552734375	893.08251953125	-522.6708984375	915.9259643554688	875.3314819335938	-561.7598876953125	912.1746826171875	1026.713012695312	-581.9451293945312	1028.299560546875	711.0538940429688	-502.2162170410156	951.8826904296875	786.5382690429688	-560.6264038085938	1018.087219238281	800.167724609375	-536.7617797851562	959.0867919921875	1512.448486328125	-132.3373565673828	955.45068359375	1442.687255859375	-56.63268280029297	931.3350830078125	1174.13818359375	-19.90803146362305	915.95263671875	1142.897583007812	-113.7565841674805	1090.837768554688	937.0746459960938	-75.25713348388672	1040.034301757812	911.2002563476562	-3.810276508331299	955.0896606445312	1098.55859375	-6.829718112945557	1143.833862304688	758.4267578125	-94.54410552978516	1145.829711914062	835.9271850585938	-67.49125671386719	1098.950561523438	821.0083618164062	-11.0425500869751	916.9364013671875	1697.719604492188	-226.7675476074219	1080.858642578125	1728.4931640625	-357.3261108398438	1086.263916015625	1729.787353515625	-258.4181518554688	900.4324951171875	1699.6044921875	-370.2317199707031	889.9591674804688	951.1078491210938	-475.1477661132812	1001.731994628906	945.64306640625	-115.4024810791016	1081.187622070312	978.6588745117188	-213.4183959960938	1017.447265625	994.9024658203125	-439.0721740722656	947.1776733398438	495.420654296875	-469.8579406738281	579.4583129882812	137.2549591064453	-430.18701171875	746.2159423828125	326.5386962890625	-465.9290161132812	775.4044189453125	36.8393669128418	-378.3523559570312	728.1571655273438	71.05678558349609	-357.61865234375	682.2677001953125	69.53797912597656	-453.6460876464844	530.0201416015625	182.0750885009766	-374.7828063964844	1077.73388671875	519.8074340820312	-172.8433837890625	1048.635131835938	787.6717529296875	-125.3464660644531	1038.31201171875	31.98512649536133	-195.1156005859375	1074.0732421875	394.92236328125	-169.7100219726562	1268.80712890625	30.00851249694824	-238.3689880371094	1206.457641601562	36.73293685913086	-268.0706787109375	1186.508544921875	28.82895469665527	-173.7454681396484	982.6380615234375	33.20347595214844	-238.7796936035156	919.0322265625	640.7244262695312	-488.1455078125	nan	nan	nan	nan	nan	nan	nan	nan	nan	
58	0.5700000000000001	858.6927490234375	1048.625244140625	-189.1835327148438	818.3341674804688	1046.247680664062	-346.4393920898438	832.12841796875	1111.303833007812	-274.7194519042969	1058.883178710938	1304.894287109375	-308.4181518554688	810.3876953125	1256.36376953125	-277.7814025878906	857.0880737304688	1523.505737304688	-299.9558715820312	1016.195983886719	1430.860473632812	-308.9166870117188	814.6065063476562	1386.958374023438	-211.5307922363281	831.106201171875	1480.61865234375	-395.534912109375	928.1268310546875	1485.239379882812	-478.5007934570312	892.7835083007812	1360.2744140625	-552.9470825195312	895.0333862304688	1141.527221679688	-578.4432373046875	844.6459350585938	1128.380859375	-486.4232177734375	995.2955322265625	893.68994140625	-522.9644775390625	917.6842651367188	874.5962524414062	-562.9851684570312	911.7280883789062	1025.830078125	-583.4521484375	1031.864624023438	712.1718139648438	-501.7825927734375	955.0352783203125	786.3853759765625	-561.3037109375	1020.7705078125	801.2031860351562	-536.62255859375	952.2876586914062	1511.5927734375	-133.7789459228516	948.2091674804688	1441.892211914062	-58.07877731323242	923.2748413085938	1173.451416015625	-21.43439483642578	908.4871215820312	1142.221557617188	-115.3891906738281	1082.281372070312	935.7100219726562	-75.26728820800781	1030.672241210938	910.093017578125	-4.348223209381104	946.6248779296875	1097.826538085938	-8.137565612792969	1134.775024414062	756.8214721679688	-93.94200134277344	1136.828979492188	834.3312377929688	-66.91259002685547	1089.374267578125	819.6767578125	-10.95485782623291	910.7526245117188	1696.734375	-228.1799468994141	1074.90966796875	1727.626220703125	-358.3467102050781	1080.086059570312	1728.864990234375	-259.4362182617188	894.511474609375	1698.688354492188	-371.7044982910156	884.660888671875	949.7769165039062	-476.0401306152344	996.776611328125	945.4063720703125	-116.899528503418	1075.706420898438	978.2177734375	-214.4872131347656	1011.92041015625	993.8038330078125	-440.11865234375	939.8717651367188	494.2659606933594	-469.9215698242188	571.6165771484375	136.6107940673828	-429.7462463378906	738.8087158203125	325.4182739257812	-465.7648010253906	766.5315551757812	35.18799591064453	-377.0875854492188	719.4912109375	69.40782928466797	-356.4563903808594	673.9692993164062	68.12340545654297	-452.7283630371094	522.409912109375	181.9550933837891	-374.59814453125	1076.392456054688	520.445068359375	-173.7433624267578	1044.780151367188	787.8198852539062	-126.0457611083984	1038.316162109375	32.03913497924805	-195.1502838134766	1073.4931640625	395.1657409667969	-170.4794006347656	1268.85107421875	30.02571678161621	-238.3919830322266	1206.44091796875	36.68762588500977	-268.0916137695312	1186.556640625	28.87936210632324	-173.7925109863281	982.6647338867188	33.21138000488281	-238.7937622070312	912.0280151367188	639.6504516601562	-488.4522094726562	nan	nan	nan	nan	nan	nan	nan	nan	nan	
59	0.58	852.9657592773438	1047.606689453125	-190.3532867431641	812.634521484375	1045.04541015625	-347.6129150390625	826.4044799804688	1110.377197265625	-276.0755920410156	1052.951782226562	1303.980346679688	-309.3946533203125	804.77685546875	1255.24853515625	-279.7691345214844	851.0012817382812	1522.462036132812	-301.9524536132812	1010.208923339844	1429.971435546875	-310.0887451171875	808.1961669921875	1385.879150390625	-213.6343536376953	825.4462890625	1479.506103515625	-397.5996398925781	922.787109375	1484.232299804688	-480.0705871582031	888.5245971679688	1359.200317382812	-554.8715209960938	892.8047485351562	1140.376953125	-580.283935546875	841.4612426757812	1126.771118164062	-488.8930053710938	996.3239135742188	894.428466796875	-523.2306518554688	919.5317993164062	873.9067993164062	-564.1220092773438	911.2244262695312	1024.940673828125	-584.9478149414062	1035.637939453125	713.4891967773438	-501.2276916503906	958.3436279296875	786.330810546875	-561.8672485351562	1023.595642089844	802.4407958984375	-536.4063110351562	945.4154663085938	1510.647827148438	-135.2898254394531	940.8914184570312	1441.013916015625	-59.60429382324219	915.0960083007812	1172.699462890625	-23.01066970825195	900.8604736328125	1141.472412109375	-117.0669097900391	1073.457641601562	934.19091796875	-75.32405853271484	1021.027099609375	908.8655395507812	-4.907485008239746	938.0186767578125	1097.023803710938	-9.484258651733398	1125.293701171875	755.0006103515625	-93.35420989990234	1127.48095703125	832.5491333007812	-66.36669158935547	1079.439819335938	818.184814453125	-10.88480758666992	904.4702758789062	1695.671508789062	-229.6728210449219	1068.876708984375	1726.65869140625	-359.4313049316406	1073.815673828125	1727.84814453125	-260.5169067382812	888.5045776367188	1697.686157226562	-373.2477111816406	879.0123291015625	948.3680419921875	-477.0411682128906	991.532958984375	945.0579223632812	-118.3491973876953	1070.008422851562	977.67626953125	-215.6083526611328	1006.177062988281	992.6241455078125	-441.2234191894531	932.4325561523438	493.0490112304688	-469.8309631347656	564.6995239257812	134.9525299072266	-429.4695129394531	731.7462158203125	323.775146484375	-465.6005554199219	758.8892211914062	33.56842041015625	-375.8212280273438	711.904296875	67.45108795166016	-355.3358764648438	666.8759765625	66.14727783203125	-451.9073791503906	515.4898681640625	180.616943359375	-374.6222229003906	1075.07177734375	521.1102905273438	-174.7215423583984	1040.751953125	787.8485717773438	-126.7297210693359	1038.323120117188	32.09451675415039	-195.180908203125	1072.989379882812	395.4205017089844	-171.3295440673828	1268.91552734375	30.06213569641113	-238.4269866943359	1206.435424804688	36.65208435058594	-268.1086120605469	1186.60791015625	28.92990493774414	-173.8402557373047	982.69921875	33.22538757324219	-238.8018341064453	904.970458984375	638.4727172851562	-488.6737060546875	nan	nan	nan	nan	nan	nan	nan	nan	nan	
